<svg xmlns="http://www.w3.org/2000/svg" viewBox="0 0 32 32" role="img" aria-label="Aerodiverti · administración">
  <defs>
    <linearGradient id="env" x1="16" y1="3" x2="16" y2="24" gradientUnits="userSpaceOnUse">
      <stop offset="0" stop-color="#9cc2f5" />
      <stop offset="1" stop-color="#3f76c9" />
    </linearGradient>
  </defs>
  <rect width="32" height="32" rx="7" fill="#15171e" />
  <!-- Mismo globo del favicon principal, en AZUL: señala que es backend/admin. -->
  <path
    d="M16 3.4C10 3.4 5.8 7.9 5.8 13.1c0 4.6 3.3 7.8 7.3 9.3l1.1 1.8h3.6l1.1-1.8c4-1.5 7.3-4.7 7.3-9.3C26.2 7.9 22 3.4 16 3.4Z"
    fill="url(#env)"
  />
  <g stroke="#15171e" stroke-width="0.9" fill="none" opacity="0.55" stroke-linecap="round">
    <path d="M16 3.6 16 23" />
    <path d="M16 3.6C12.3 8 11 15 12.8 22.1" />
    <path d="M16 3.6C19.7 8 21 15 19.2 22.1" />
  </g>
  <path d="M13.4 22.6 14.4 24.4M18.6 22.6 17.6 24.4" stroke="#9cc2f5" stroke-width="1.3" stroke-linecap="round" />
  <rect x="13.5" y="24.4" width="5" height="3.4" rx="1" fill="#9cc2f5" />
</svg>
